<svg width="56" height="25" viewBox="0 0 56 25" fill="none" xmlns="http://www.w3.org/2000/svg">
<path d="M11.6787 12.9612V18.7978C11.6788 18.8975 11.6528 18.9955 11.6032 19.0819C11.5536 19.1683 11.4822 19.2401 11.3961 19.2901L8.14794 21.0872C8.10511 21.1123 8.05642 21.1256 8.0068 21.1258C7.95719 21.1259 7.90842 21.1129 7.86545 21.088C7.82248 21.0631 7.78684 21.0273 7.76213 20.9842C7.73742 20.941 7.72453 20.8921 7.72477 20.8424V15.1698C7.72478 15.07 7.69855 14.9719 7.64872 14.8855C7.5989 14.7991 7.52723 14.7273 7.44095 14.6775L2.54312 11.8419C2.5001 11.8171 2.46438 11.7813 2.43953 11.7382C2.41469 11.6951 2.40161 11.6462 2.40161 11.5964C2.40161 11.5466 2.41469 11.4977 2.43953 11.4546C2.46438 11.4115 2.5001 11.3758 2.54312 11.3509L5.78875 9.55251C5.87489 9.50279 5.97254 9.47662 6.07193 9.47662C6.17132 9.47662 6.26897 9.50279 6.35511 9.55251L11.3923 12.4702C11.4782 12.5199 11.5496 12.5915 11.5992 12.6777C11.6488 12.7639 11.6749 12.8617 11.6748 12.9612" fill="black"/>
<path d="M19.5976 8.36464V17.6164C19.5973 17.7183 19.5704 17.8184 19.5194 17.9065C19.4685 17.9947 19.3953 18.0678 19.3072 18.1187L14.8671 20.689C14.8232 20.7146 14.7733 20.7281 14.7225 20.7282C14.6718 20.7283 14.6218 20.715 14.5778 20.6896C14.5338 20.6642 14.4972 20.6276 14.4718 20.5835C14.4463 20.5395 14.4329 20.4894 14.4329 20.4385V11.3546C14.4329 11.2526 14.4062 11.1524 14.3555 11.0641C14.3048 10.9757 14.2318 10.9022 14.1439 10.851L6.29686 6.3097C6.25286 6.28429 6.21631 6.24769 6.19089 6.20361C6.16548 6.15952 6.1521 6.1095 6.1521 6.05858C6.1521 6.00766 6.16548 5.95763 6.19089 5.91354C6.21631 5.86946 6.25286 5.83286 6.29686 5.80745L10.7435 3.23583C10.8316 3.18497 10.9315 3.1582 11.0332 3.1582C11.1349 3.1582 11.2348 3.18497 11.3229 3.23583L19.3124 7.86238C19.4005 7.91321 19.4737 7.98638 19.5247 8.07453C19.5756 8.16269 19.6026 8.26274 19.6028 8.36464" fill="black"/>
<path d="M32.4823 19.3033C36.3992 19.3033 39.2934 16.9531 40.0333 13.6672H36.8562C36.2469 15.4081 34.5713 16.5397 32.504 16.5397C29.6316 16.5397 27.5426 14.3853 27.5426 11.4041C27.5426 8.46637 29.6316 6.26852 32.504 6.26852C34.5931 6.26852 36.2469 7.42185 36.8127 9.18448H39.9463C39.1629 5.92034 36.421 3.50488 32.504 3.50488C27.8472 3.50488 24.5396 6.92135 24.5396 11.4041C24.5396 15.9304 27.8254 19.3033 32.4823 19.3033Z" fill="black"/>
<path d="M41.4881 19.0204H50.5406V16.4526H44.3823V3.78778H41.4881V19.0204Z" fill="black"/>
<path d="M51.958 19.0204H54.8522V3.78778H51.958V19.0204Z" fill="black"/>
</svg>
