<svg width="18" height="18" viewBox="2.5 3 18 18" fill="none" xmlns="http://www.w3.org/2000/svg">
<path d="M12.0666 12.961V18.7976C12.0667 18.8973 12.0407 18.9953 11.9911 19.0817C11.9415 19.1681 11.8701 19.2399 11.7841 19.2899L9.61867 20.4882L9.61858 20.4879L8.53588 21.087C8.49305 21.1121 8.44436 21.1254 8.39474 21.1256C8.34513 21.1257 8.29636 21.1127 8.25339 21.0878C8.21042 21.063 8.17477 21.0271 8.15007 20.984C8.12536 20.9409 8.11247 20.8919 8.11271 20.8422V15.1696C8.11272 15.0698 8.08649 14.9717 8.03666 14.8853C7.98684 14.7989 7.91517 14.7272 7.82889 14.6774L2.93106 11.8417C2.88804 11.8169 2.85232 11.7811 2.82747 11.738C2.80263 11.6949 2.78955 11.646 2.78955 11.5962C2.78955 11.5465 2.80263 11.4975 2.82747 11.4545C2.85232 11.4114 2.88804 11.3756 2.93106 11.3507L4.01312 10.7513H4.01256L6.17669 9.55232C6.26283 9.50261 6.36048 9.47644 6.45987 9.47644C6.55926 9.47644 6.65691 9.50261 6.74305 9.55232L11.7802 12.47C11.8662 12.5198 11.9375 12.5913 11.9871 12.6775C12.0367 12.7637 12.0628 12.8615 12.0628 12.961" fill="black"/>
<path d="M19.9855 8.36445V17.6162C19.9853 17.7181 19.9583 17.8182 19.9074 17.9063C19.8564 17.9945 19.7832 18.0677 19.6952 18.1185L15.2551 20.6888C15.2111 20.7144 15.1613 20.7279 15.1105 20.728C15.0597 20.7281 15.0098 20.7148 14.9658 20.6894C14.9217 20.664 14.8852 20.6274 14.8597 20.5833C14.8343 20.5393 14.8209 20.4892 14.8209 20.4383V14.0534V11.3544C14.8209 11.2524 14.7942 11.1523 14.7435 11.0639C14.6927 10.9755 14.6198 10.902 14.5318 10.8508L6.6848 6.30952C6.6408 6.2841 6.60425 6.24751 6.57883 6.20342C6.55342 6.15934 6.54004 6.10932 6.54004 6.05839C6.54004 6.00747 6.55342 5.95745 6.57883 5.91336C6.60425 5.86927 6.6408 5.83268 6.6848 5.80726L11.1314 3.23565C11.2196 3.18479 11.3195 3.15802 11.4211 3.15802C11.5228 3.15802 11.6227 3.18479 11.7108 3.23565L19.7004 7.8622C19.7885 7.91303 19.8616 7.98619 19.9126 8.07435C19.9636 8.16251 19.9905 8.26256 19.9907 8.36445" fill="black"/>
</svg>
